<svg width="25" height="23" viewBox="0 0 25 23" fill="none" xmlns="http://www.w3.org/2000/svg">
<path d="M21 19.3383C21 19.8623 20.542 20.3052 20 20.3052H3C2.458 20.3052 2 19.8623 2 19.3383V2.90074C2 2.37667 2.458 1.93383 3 1.93383H19.908L21.493 0.401269C21.041 0.141693 20.5257 0.00319052 20 0H3C1.35 0 0 1.30533 0 2.90074V19.3383C0 20.9337 1.35 22.239 3 22.239H20C21.65 22.239 23 20.9337 23 19.3383V9.83448L21 11.7683V19.3383Z" fill="#BBBBBB"/>
<path d="M6.70242 8.149L4 10.978L11.4348 18.761L24.7434 4.829L22.0419 2L11.4348 13.102L6.70242 8.149Z" fill="#BBBBBB"/>
</svg>
