<svg width="81" height="81" viewBox="0 0 81 81" fill="none" xmlns="http://www.w3.org/2000/svg">
<g filter="url(#filter0_i_1586_678)">
<path fill-rule="evenodd" clip-rule="evenodd" d="M40.6617 1.2116C62.2692 1.2116 79.7856 18.7282 79.7856 40.336C79.7856 61.9432 62.2692 79.4598 40.6617 79.4598C19.054 79.4598 1.53754 61.9432 1.53754 40.336C1.53754 18.7282 19.054 1.2116 40.6617 1.2116Z" fill="white"/>
<path fill-rule="evenodd" clip-rule="evenodd" d="M40.6617 1.2116C62.2692 1.2116 79.7856 18.7282 79.7856 40.336C79.7856 61.9432 62.2692 79.4598 40.6617 79.4598C19.054 79.4598 1.53754 61.9432 1.53754 40.336C1.53754 18.7282 19.054 1.2116 40.6617 1.2116Z" fill="#E74246"/>
</g>
<path d="M47 33V29H43C40.7909 29 39 30.7909 39 33V37H35V41H39V51H43V41H47V37H43V33H47Z" fill="white" fill-opacity="0.3"/>
<defs>
<filter id="filter0_i_1586_678" x="1.53754" y="1.21155" width="78.2481" height="78.2483" filterUnits="userSpaceOnUse" color-interpolation-filters="sRGB">
<feFlood flood-opacity="0" result="BackgroundImageFix"/>
<feBlend mode="normal" in="SourceGraphic" in2="BackgroundImageFix" result="shape"/>
<feColorMatrix in="SourceAlpha" type="matrix" values="0 0 0 0 0 0 0 0 0 0 0 0 0 0 0 0 0 0 127 0" result="hardAlpha"/>
<feOffset dy="3"/>
<feComposite in2="hardAlpha" operator="arithmetic" k2="-1" k3="1"/>
<feColorMatrix type="matrix" values="0 0 0 0 0 0 0 0 0 0.00392157 0 0 0 0 0.00392157 0 0 0 0.1 0"/>
<feBlend mode="normal" in2="shape" result="effect1_innerShadow_1586_678"/>
</filter>
</defs>
</svg>
