<svg width="81" height="81" viewBox="0 0 81 81" fill="none" xmlns="http://www.w3.org/2000/svg">
<path fill-rule="evenodd" clip-rule="evenodd" d="M40.6617 1.2116C62.2692 1.2116 79.7856 18.7282 79.7856 40.336C79.7856 61.9432 62.2692 79.4597 40.6617 79.4597C19.054 79.4597 1.53754 61.9432 1.53754 40.336C1.53754 18.7282 19.054 1.2116 40.6617 1.2116Z" fill="white"/>
<path fill-rule="evenodd" clip-rule="evenodd" d="M40.6617 1.2116C62.2692 1.2116 79.7856 18.7282 79.7856 40.336C79.7856 61.9432 62.2692 79.4597 40.6617 79.4597C19.054 79.4597 1.53754 61.9432 1.53754 40.336C1.53754 18.7282 19.054 1.2116 40.6617 1.2116Z" fill="#E1E1E1"/>
<path fill-rule="evenodd" clip-rule="evenodd" d="M32 29H47C48.65 29 50 30.35 50 32V47C50 48.65 48.65 50 47 50H32C30.35 50 29 48.65 29 47V32C29 30.35 30.35 29 32 29ZM43 39.5C43 37.57 41.43 36 39.5 36C37.57 36 36 37.57 36 39.5C36 41.43 37.57 43 39.5 43C41.43 43 43 41.43 43 39.5ZM32 47V38H33.181C33.0626 38.4913 33.0019 38.9947 33 39.5C33 43.0899 35.9101 46 39.5 46C43.0899 46 46 43.0899 46 39.5C45.9986 38.9946 45.9379 38.4912 45.819 38H47V47H32ZM43 36H47V32H43V36Z" fill="white"/>
</svg>
