<svg width="81" height="81" viewBox="0 0 81 81" fill="none" xmlns="http://www.w3.org/2000/svg">
<g filter="url(#filter0_i_1586_680)">
<path fill-rule="evenodd" clip-rule="evenodd" d="M40.6617 1.2116C62.2692 1.2116 79.7856 18.7282 79.7856 40.336C79.7856 61.9432 62.2692 79.4598 40.6617 79.4598C19.054 79.4598 1.53754 61.9432 1.53754 40.336C1.53754 18.7282 19.054 1.2116 40.6617 1.2116Z" fill="white"/>
<path fill-rule="evenodd" clip-rule="evenodd" d="M40.6617 1.2116C62.2692 1.2116 79.7856 18.7282 79.7856 40.336C79.7856 61.9432 62.2692 79.4598 40.6617 79.4598C19.054 79.4598 1.53754 61.9432 1.53754 40.336C1.53754 18.7282 19.054 1.2116 40.6617 1.2116Z" fill="#E74246"/>
</g>
<path fill-rule="evenodd" clip-rule="evenodd" d="M33 30H48C49.65 30 51 31.35 51 33V48C51 49.65 49.65 51 48 51H33C31.35 51 30 49.65 30 48V33C30 31.35 31.35 30 33 30ZM44 40.5C44 38.57 42.43 37 40.5 37C38.57 37 37 38.57 37 40.5C37 42.43 38.57 44 40.5 44C42.43 44 44 42.43 44 40.5ZM33 48V39H34.181C34.0626 39.4913 34.0019 39.9947 34 40.5C34 44.0899 36.9102 47 40.5 47C44.0898 47 47 44.0899 47 40.5C46.9986 39.9946 46.9379 39.4912 46.819 39H48V48H33ZM44 37H48V33H44V37Z" fill="white" fill-opacity="0.3"/>
<defs>
<filter id="filter0_i_1586_680" x="1.53754" y="1.21155" width="78.2481" height="78.2483" filterUnits="userSpaceOnUse" color-interpolation-filters="sRGB">
<feFlood flood-opacity="0" result="BackgroundImageFix"/>
<feBlend mode="normal" in="SourceGraphic" in2="BackgroundImageFix" result="shape"/>
<feColorMatrix in="SourceAlpha" type="matrix" values="0 0 0 0 0 0 0 0 0 0 0 0 0 0 0 0 0 0 127 0" result="hardAlpha"/>
<feOffset dy="3"/>
<feComposite in2="hardAlpha" operator="arithmetic" k2="-1" k3="1"/>
<feColorMatrix type="matrix" values="0 0 0 0 0 0 0 0 0 0.00392157 0 0 0 0 0.00392157 0 0 0 0.1 0"/>
<feBlend mode="normal" in2="shape" result="effect1_innerShadow_1586_680"/>
</filter>
</defs>
</svg>
